<?xml version="1.0" encoding="iso-8859-1"?>
<!-- Generator: Adobe Illustrator 21.0.0, SVG Export Plug-In . SVG Version: 6.00 Build 0)  -->
<svg xmlns="http://www.w3.org/2000/svg" xmlns:xlink="http://www.w3.org/1999/xlink" version="1.1" id="Capa_1" x="0px" y="0px" viewBox="0 0 511 511" style="enable-background:new 0 0 511 511;" xml:space="preserve" width="512" height="512">
<g>
	<g>
		<g>
			<rect x="7.5" y="43.5" style="fill:#EAEBEF;" width="464" height="320"/>
			<polygon style="fill:#D5D8DE;" points="239.5,117.375 7.5,293.376 7.5,363.5 471.5,363.5 471.5,293.376    "/>
			<polygon style="fill:#EAEBEF;" points="471.5,363.5 7.5,363.5 7.5,323.5 239.5,147.5 471.5,323.5    "/>
			<polygon style="fill:#F4F5F7;" points="239.5,227.5 7.5,43.5 471.5,43.5    "/>
		</g>
		<g>
			<circle style="fill:#F6B864;" cx="399.5" cy="363.5" r="104"/>
			<path style="fill:#F5AF50;" d="M423.5,451.5c-57.438,0-104-46.562-104-104c0-30.937,13.513-58.713,34.953-77.764     c-34.88,16.788-58.953,52.464-58.953,93.764c0,57.438,46.562,104,104,104c26.501,0,50.681-9.917,69.047-26.236     C454.917,447.824,439.638,451.5,423.5,451.5z"/>
		</g>
	</g>
	<g>
		<path d="M478.799,285.2c0.127-0.547,0.201-1.115,0.201-1.7v-240c0-4.074-3.423-7.5-7.5-7.5H7.5C3.423,36,0,39.426,0,43.5v89    c0,4.143,3.358,7.5,7.5,7.5s7.5-3.357,7.5-7.5V59.021l160.709,127.459L15,308.396V168.5c0-4.143-3.358-7.5-7.5-7.5    S0,164.357,0,168.5v195c0,4.143,3.358,7.5,7.5,7.5h280.758c3.871,57.997,52.281,104,111.242,104    c61.481,0,111.5-50.019,111.5-111.5C511,333.013,498.696,305.349,478.799,285.2z M390.178,252.393l-86.886-65.914L464,59.021    v213.576C445.781,259.631,423.515,252,399.5,252C396.36,252,393.252,252.137,390.178,252.393z M449.974,51L239.5,217.928    L29.026,51H449.974z M15,356v-28.775l172.843-131.122l46.997,37.273c2.698,2.14,6.623,2.141,9.321,0l46.997-37.273l78.895,59.852    C325.137,268.267,291.46,308.027,288.258,356H15z M399.5,460c-53.21,0-96.5-43.29-96.5-96.5s43.29-96.5,96.5-96.5    s96.5,43.29,96.5,96.5S452.71,460,399.5,460z"/>
		<path d="M399.5,292c-26.191,0-47.5,21.309-47.5,47.5c0,4.143,3.358,7.5,7.5,7.5s7.5-3.357,7.5-7.5c0-17.921,14.58-32.5,32.5-32.5    s32.5,14.579,32.5,32.5S417.42,372,399.5,372c-4.142,0-7.5,3.357-7.5,7.5v24c0,4.143,3.358,7.5,7.5,7.5s7.5-3.357,7.5-7.5v-17.092    c22.641-3.605,40-23.268,40-46.908C447,313.309,425.691,292,399.5,292z"/>
		<circle cx="399.5" cy="427.5" r="8"/>
	</g>
</g>















</svg>
